<?xml version="1.0" encoding="iso-8859-1"?>
<!-- Generator: Adobe Illustrator 19.0.0, SVG Export Plug-In . SVG Version: 6.00 Build 0)  -->
<svg version="1.1" id="Capa_1" xmlns="http://www.w3.org/2000/svg" xmlns:xlink="http://www.w3.org/1999/xlink" x="0px" y="0px"
	 viewBox="0 0 512 512" style="enable-background:new 0 0 512 512;" xml:space="preserve">
<g>
	<g>
		<polygon points="225.619,174.6 220.086,241 286.383,241 291.916,174.6 		"/>
	</g>
</g>
<g>
	<g>
		<path d="M497,0H15C6.716,0,0,6.716,0,15v385.601c0,8.284,6.716,15,15,15h81.4V497c0,6.066,3.654,11.537,9.26,13.858
			c1.855,0.769,3.805,1.142,5.737,1.142c3.903,0,7.74-1.523,10.609-4.394l92.007-92.006H497c8.284,0,15-6.716,15-15V15
			C512,6.716,505.284,0,497,0z M360.434,174.6H322.02l-5.533,66.4h27.881c8.284,0,15,6.716,15,15s-6.716,15-15,15h-30.381
			l-2.87,34.445c-0.652,7.832-7.211,13.756-14.932,13.756c-0.417,0-0.839-0.018-1.263-0.053c-8.255-0.688-14.39-7.938-13.702-16.193
			L283.883,271h-66.297l-2.87,34.445c-0.652,7.832-7.211,13.756-14.932,13.756c-0.417,0-0.839-0.018-1.263-0.053
			c-8.255-0.688-14.39-7.938-13.702-16.193L187.482,271h-35.915c-8.284,0-15-6.716-15-15s6.716-15,15-15h38.415l5.533-66.4h-27.881
			c-8.284,0-15-6.716-15-15s6.716-15,15-15h30.381l2.87-34.445c0.688-8.255,7.924-14.394,16.194-13.703
			c8.255,0.688,14.39,7.938,13.702,16.194l-2.663,31.954h66.297l2.87-34.445c0.689-8.255,7.918-14.394,16.194-13.703
			c8.255,0.688,14.39,7.938,13.702,16.194L324.52,144.6h35.914c8.284,0,15,6.716,15,15S368.718,174.6,360.434,174.6z"/>
	</g>
</g>
<g>
</g>
<g>
</g>
<g>
</g>
<g>
</g>
<g>
</g>
<g>
</g>
<g>
</g>
<g>
</g>
<g>
</g>
<g>
</g>
<g>
</g>
<g>
</g>
<g>
</g>
<g>
</g>
<g>
</g>
</svg>
